<?xml version="1.0" encoding="UTF-8" standalone="no"?>
<!DOCTYPE svg PUBLIC "-//W3C//DTD SVG 1.1//EN" "http://www.w3.org/Graphics/SVG/1.1/DTD/svg11.dtd">
<svg width="100%" height="100%" viewBox="0 0 640 320" version="1.1" xmlns="http://www.w3.org/2000/svg" xmlns:xlink="http://www.w3.org/1999/xlink" xml:space="preserve" xmlns:serif="http://www.serif.com/" style="fill-rule:evenodd;clip-rule:evenodd;stroke-linejoin:round;stroke-miterlimit:2;">
    <rect id="Social-Preview" serif:id="Social Preview" x="0" y="0" width="640" height="320" style="fill:white;"/>
    <g id="Social-Preview1" serif:id="Social Preview">
        <g transform="matrix(1,0,0,1,0,4.66667)">
            <g transform="matrix(3.82844,0,0,3.82844,-872.523,-225.294)">
                <path d="M282.758,93.359C282.758,91.629 284.46,91.629 284.46,91.629C284.46,91.629 286.187,91.629 286.187,89.928C286.187,89.928 282.758,89.928 282.758,93.359ZM287.891,91.656C287.891,91.656 286.19,91.656 286.19,93.381L286.19,110.517L287.891,110.517L287.891,92.997C287.891,92.975 289.595,92.086 289.595,89.928C289.595,91.656 287.891,91.656 287.891,91.656Z" style="fill:rgb(47,44,78);fill-rule:nonzero;"/>
                <path d="M292.98,96.816C294.686,96.816 294.686,98.517 294.686,98.517L294.686,108.813C294.686,108.813 294.686,110.517 292.98,110.517C296.411,110.517 296.411,107.085 296.411,107.085L296.411,100.221C296.411,100.223 296.411,96.816 292.98,96.816ZM291.275,108.813L291.275,98.517C291.275,98.517 291.275,96.816 292.98,96.816C289.574,96.816 289.574,100.221 289.574,100.221L289.574,107.085C289.574,107.085 289.574,110.517 292.98,110.517C291.275,110.517 291.275,108.813 291.275,108.813Z" style="fill:rgb(47,44,78);fill-rule:nonzero;"/>
                <path d="M302.558,98.519L302.558,110.517L304.259,110.517L304.259,96.816C302.558,96.816 302.558,98.519 302.558,98.519ZM299.123,108.813L299.123,98.519C299.123,98.519 299.123,96.816 297.398,96.816L297.398,107.086C297.398,107.086 297.398,110.517 300.828,110.517C299.123,110.517 299.123,108.813 299.123,108.813Z" style="fill:rgb(47,44,78);fill-rule:nonzero;"/>
                <path d="M308.676,96.816C310.382,96.816 310.382,98.519 310.382,98.519L310.382,110.517L312.107,110.517L312.107,100.223C312.107,100.223 312.107,96.816 308.676,96.816ZM305.246,89.928L305.246,110.517L306.947,110.517L306.947,91.638C306.947,89.928 305.246,89.928 305.246,89.928Z" style="fill:rgb(47,44,78);fill-rule:nonzero;"/>
                <path d="M316.476,96.816C318.182,96.816 318.182,98.517 318.182,98.517L318.182,108.813C318.182,108.813 318.182,110.517 316.476,110.517C319.907,110.517 319.907,107.085 319.907,107.085L319.907,100.221C319.907,100.223 319.907,96.816 316.476,96.816ZM314.771,108.813L314.771,98.517C314.771,98.517 314.771,96.816 316.476,96.816C313.07,96.816 313.07,100.221 313.07,100.221L313.07,107.085C313.07,107.085 313.07,110.517 316.476,110.517C314.771,110.517 314.771,108.813 314.771,108.813Z" style="fill:rgb(47,44,78);fill-rule:nonzero;"/>
                <path d="M326.054,98.519L326.054,110.517L327.755,110.517L327.755,96.816C326.054,96.816 326.054,98.519 326.054,98.519ZM322.619,108.813L322.619,98.519C322.619,98.519 322.619,96.816 320.894,96.816L320.894,107.086C320.894,107.086 320.894,110.517 324.324,110.517C322.619,110.517 322.619,108.813 322.619,108.813Z" style="fill:rgb(47,44,78);fill-rule:nonzero;"/>
                <path d="M334.742,93.359C334.742,91.629 336.444,91.629 336.444,91.629C336.444,91.629 338.171,91.629 338.171,89.928C338.171,89.928 334.742,89.928 334.742,93.359ZM339.875,91.656C339.875,91.656 338.174,91.656 338.174,93.381L338.174,110.517L339.875,110.517L339.875,92.997C339.875,92.975 341.579,92.086 341.579,89.928C341.579,91.656 339.875,91.656 339.875,91.656Z" style="fill:rgb(47,44,78);fill-rule:nonzero;"/>
                <path d="M343.284,108.814L343.284,103.654C343.284,103.654 343.284,101.95 345.012,101.95C341.58,101.95 341.58,105.382 341.58,105.382L341.58,107.086C341.58,107.086 341.58,110.518 345.012,110.518C343.284,110.518 343.284,108.814 343.284,108.814ZM345.012,96.814C346.716,96.814 346.716,98.518 346.716,98.518L346.716,108.814C346.716,108.814 346.716,110.518 345.012,110.518C348.42,110.518 348.42,107.086 348.42,107.086L348.42,100.222C348.42,100.222 348.42,96.814 345.012,96.814ZM341.58,100.222C343.284,100.222 343.284,98.518 343.284,98.518C343.284,98.518 343.284,96.814 345.012,96.814C341.58,96.814 341.58,100.222 341.58,100.222Z" style="fill:rgb(47,44,78);fill-rule:nonzero;"/>
                <path d="M351.107,108.813L351.107,98.517C351.107,98.517 351.107,96.816 352.812,96.816C349.406,96.816 349.406,100.221 349.406,100.221L349.406,107.086C349.406,107.086 349.406,110.517 352.812,110.517C351.107,110.517 351.107,108.813 351.107,108.813ZM351.107,115.629C351.107,115.63 351.107,113.926 349.406,113.926C349.406,113.925 349.406,117.357 352.812,117.357C351.107,117.357 351.107,115.629 351.107,115.629ZM352.812,110.517L352.812,110.52L352.812,110.517ZM352.812,96.816C354.518,96.816 354.518,98.519 354.518,98.519L354.518,108.815L354.518,108.813C354.518,110.445 352.933,110.517 352.812,110.517C352.933,110.517 354.518,110.565 354.518,112.198L354.518,115.63C354.518,115.63 354.518,117.357 352.812,117.357C356.243,117.357 356.243,113.928 356.243,113.928C356.243,110.613 353.053,110.517 352.836,110.517C353.053,110.517 356.243,110.397 356.243,107.086L356.243,100.223C356.243,100.223 356.243,96.816 352.812,96.816Z" style="fill:rgb(47,44,78);fill-rule:nonzero;"/>
                <path d="M358.907,108.813L358.907,98.517C358.907,98.517 358.907,96.816 360.612,96.816C357.206,96.816 357.206,100.221 357.206,100.221L357.206,107.086C357.206,107.086 357.206,110.517 360.612,110.517C358.907,110.517 358.907,108.813 358.907,108.813ZM358.907,115.629C358.907,115.63 358.907,113.926 357.206,113.926C357.206,113.925 357.206,117.357 360.612,117.357C358.907,117.357 358.907,115.629 358.907,115.629ZM360.612,110.517L360.612,110.52L360.612,110.517ZM360.612,96.816C362.318,96.816 362.318,98.519 362.318,98.519L362.318,108.815L362.318,108.813C362.318,110.445 360.733,110.517 360.612,110.517C360.733,110.517 362.318,110.565 362.318,112.198L362.318,115.63C362.318,115.63 362.318,117.357 360.612,117.357C364.043,117.357 364.043,113.928 364.043,113.928C364.043,110.613 360.853,110.517 360.636,110.517C360.853,110.517 364.043,110.397 364.043,107.086L364.043,100.223C364.043,100.223 364.043,96.816 360.612,96.816Z" style="fill:rgb(47,44,78);fill-rule:nonzero;"/>
                <path d="M365.006,100.223L365.006,107.086C365.006,107.086 365.006,110.517 368.436,110.517C366.707,110.517 366.707,108.813 366.707,108.813L366.707,98.517C366.707,98.517 366.707,96.816 368.436,96.816C365.006,96.816 365.006,100.223 365.006,100.223ZM371.843,107.088C370.142,107.088 370.142,108.814 370.142,108.814C370.142,108.814 370.142,110.517 368.436,110.517C371.843,110.517 371.843,107.086 371.843,107.086L371.843,107.088ZM368.436,96.816C370.142,96.816 370.142,98.517 370.142,98.517L370.142,101.949C370.142,101.949 370.142,103.653 368.436,103.653C371.843,103.653 371.843,100.221 371.843,100.221L371.843,100.223C371.843,100.223 371.843,96.816 368.436,96.816Z" style="fill:rgb(47,44,78);fill-rule:nonzero;"/>
                <path d="M375.972,96.816C377.678,96.816 377.678,98.517 377.678,98.517C377.678,98.518 377.678,100.221 379.403,100.221C379.403,100.223 379.403,96.816 375.972,96.816ZM372.542,96.816L372.542,110.517L374.243,110.517L374.243,98.517L374.243,98.519C374.243,98.519 374.243,96.816 375.972,96.816C374.867,96.816 373.908,97.44 373.908,97.44C373.668,97.104 373.237,96.816 372.542,96.816Z" style="fill:rgb(47,44,78);fill-rule:nonzero;"/>
            </g>
            <g id="Logo" transform="matrix(0.666667,0,0,0.666667,53.3333,-133.333)">
                <path d="M100,390L40.034,390C31.905,390 24.409,385.616 20.424,378.531C15.66,370.062 10,360 10,360L69.966,360C78.095,360 85.591,364.384 89.576,371.469C94.34,379.938 100,390 100,390Z" style="fill:rgb(100,92,187);"/>
                <path d="M100,390C100,390 105.66,379.938 110.424,371.469C114.409,364.384 121.905,360 130.034,360C151.087,360 190,360 190,360C190,360 184.34,370.062 179.576,378.531C175.591,385.616 168.095,390 159.966,390C138.913,390 100,390 100,390Z" style="fill:rgb(100,92,187);"/>
                <path d="M100,430C100,430 105.66,419.938 110.424,411.469C114.409,404.384 121.905,400 130.034,400L167.5,400C167.5,400 161.84,410.062 157.076,418.531C153.091,425.616 145.595,430 137.466,430L100,430Z" style="fill:rgb(160,132,220);"/>
                <path d="M100,430L62.534,430C54.405,430 46.909,425.616 42.924,418.531C38.16,410.062 32.5,400 32.5,400L69.966,400C78.095,400 85.591,404.384 89.576,411.469C94.34,419.938 100,430 100,430Z" style="fill:rgb(160,132,220);"/>
                <path d="M75,475.556L55,440L63.75,440C66.734,440 69.595,441.185 71.705,443.295C73.815,445.405 75,448.266 75,451.25C75,461.667 75,475.556 75,475.556Z" style="fill:rgb(191,172,226);"/>
                <path d="M145,440L125,475.556L125,451.25C125,448.266 126.185,445.405 128.295,443.295C130.405,441.185 133.266,440 136.25,440C140.8,440 145,440 145,440Z" style="fill:rgb(191,172,226);"/>
                <path d="M81.244,440L118.756,440C116.511,441.296 115,443.722 115,446.5L115,486.785C115,491.078 113.894,495.299 111.789,499.041L100,520L88.211,499.041C86.106,495.299 85,491.078 85,486.785L85,446.5C85,443.722 83.489,441.296 81.244,440Z" style="fill:rgb(191,172,226);"/>
            </g>
        </g>
    </g>
</svg>
